<svg width="35" height="35" viewBox="0 0 35 35" fill="none" xmlns="http://www.w3.org/2000/svg">
<g filter="url(#filter0_b)">
<rect x="1" y="1" width="33" height="33" rx="10" fill="#B75EC7"/>
<g filter="url(#filter1_d)">
<path d="M17.5 19.2C22.1943 19.2 26 20.9759 26 23.1667V26H9V23.1667C9 20.9759 12.8057 19.2 17.5 19.2ZM24.8667 23.1667C24.8667 21.6027 21.5687 20.3333 17.5 20.3333C13.4313 20.3333 10.1333 21.6027 10.1333 23.1667V24.8667H24.8667V23.1667ZM17.5 9C18.552 9 19.561 9.41792 20.3049 10.1618C21.0488 10.9057 21.4667 11.9146 21.4667 12.9667C21.4667 14.0187 21.0488 15.0276 20.3049 15.7715C19.561 16.5154 18.552 16.9333 17.5 16.9333C16.448 16.9333 15.439 16.5154 14.6951 15.7715C13.9512 15.0276 13.5333 14.0187 13.5333 12.9667C13.5333 11.9146 13.9512 10.9057 14.6951 10.1618C15.439 9.41792 16.448 9 17.5 9ZM17.5 10.1333C16.7486 10.1333 16.0279 10.4318 15.4965 10.9632C14.9652 11.4946 14.6667 12.2152 14.6667 12.9667C14.6667 13.7181 14.9652 14.4388 15.4965 14.9701C16.0279 15.5015 16.7486 15.8 17.5 15.8C18.2514 15.8 18.9721 15.5015 19.5035 14.9701C20.0348 14.4388 20.3333 13.7181 20.3333 12.9667C20.3333 12.2152 20.0348 11.4946 19.5035 10.9632C18.9721 10.4318 18.2514 10.1333 17.5 10.1333Z" fill="#FCFCFC"/>
<path d="M9.63333 24.8667V25.3667H10.1333H24.8667H25.3667V24.8667V23.1667C25.3667 22.5863 25.0588 22.0894 24.6242 21.6942C24.1896 21.2991 23.5888 20.9662 22.8886 20.6968C21.485 20.1569 19.5797 19.8333 17.5 19.8333C15.4203 19.8333 13.515 20.1569 12.1114 20.6968C11.4112 20.9662 10.8104 21.2991 10.3758 21.6942C9.94121 22.0894 9.63333 22.5863 9.63333 23.1667V24.8667ZM17.5 19.7C19.7909 19.7 21.8406 20.1344 23.2989 20.8149C24.7978 21.5144 25.5 22.381 25.5 23.1667V25.5H9.5V23.1667C9.5 22.381 10.2022 21.5144 11.7011 20.8149C13.1594 20.1344 15.2091 19.7 17.5 19.7ZM17.5 9.5C18.4194 9.5 19.3012 9.86524 19.9513 10.5154C20.6014 11.1655 20.9667 12.0473 20.9667 12.9667C20.9667 13.8861 20.6014 14.7678 19.9513 15.418C19.3012 16.0681 18.4194 16.4333 17.5 16.4333C16.5806 16.4333 15.6988 16.0681 15.0487 15.418C14.3986 14.7678 14.0333 13.8861 14.0333 12.9667C14.0333 12.0472 14.3986 11.1655 15.0487 10.5154C15.6988 9.86524 16.5806 9.5 17.5 9.5ZM17.5 9.63333C16.6159 9.63333 15.7681 9.98452 15.143 10.6096C14.5179 11.2348 14.1667 12.0826 14.1667 12.9667C14.1667 13.8507 14.5179 14.6986 15.143 15.3237C15.7681 15.9488 16.6159 16.3 17.5 16.3C18.3841 16.3 19.2319 15.9488 19.857 15.3237C20.4821 14.6986 20.8333 13.8507 20.8333 12.9667C20.8333 12.0826 20.4821 11.2348 19.857 10.6096C19.2319 9.98452 18.3841 9.63333 17.5 9.63333Z" stroke="white"/>
</g>
<rect x="0.5" y="0.5" width="34" height="34" rx="10.5" stroke="#B75EC7" stroke-linejoin="round"/>
</g>
<defs>
<filter id="filter0_b" x="-4" y="-4" width="43" height="43" filterUnits="userSpaceOnUse" color-interpolation-filters="sRGB">
<feFlood flood-opacity="0" result="BackgroundImageFix"/>
<feGaussianBlur in="BackgroundImage" stdDeviation="2"/>
<feComposite in2="SourceAlpha" operator="in" result="effect1_backgroundBlur"/>
<feBlend mode="normal" in="SourceGraphic" in2="effect1_backgroundBlur" result="shape"/>
</filter>
<filter id="filter1_d" x="5" y="9" width="25" height="25" filterUnits="userSpaceOnUse" color-interpolation-filters="sRGB">
<feFlood flood-opacity="0" result="BackgroundImageFix"/>
<feColorMatrix in="SourceAlpha" type="matrix" values="0 0 0 0 0 0 0 0 0 0 0 0 0 0 0 0 0 0 127 0"/>
<feOffset dy="4"/>
<feGaussianBlur stdDeviation="2"/>
<feColorMatrix type="matrix" values="0 0 0 0 0 0 0 0 0 0 0 0 0 0 0 0 0 0 0.25 0"/>
<feBlend mode="normal" in2="BackgroundImageFix" result="effect1_dropShadow"/>
<feBlend mode="normal" in="SourceGraphic" in2="effect1_dropShadow" result="shape"/>
</filter>
</defs>
</svg>
