<svg width="34" height="34" viewBox="0 0 34 34" fill="none" xmlns="http://www.w3.org/2000/svg">
<rect width="34" height="34" rx="10" fill="#F4808D"/>
<g clip-path="url(#clip0)">
<path d="M17.5 20.7144H15.3571V17.5001C15.3569 17.2161 15.2439 16.9437 15.043 16.7428C14.8421 16.542 14.5698 16.429 14.2857 16.4287H11.0714C10.7874 16.429 10.515 16.542 10.3141 16.7428C10.1133 16.9437 10.0003 17.2161 10 17.5001V20.7144C10.0003 20.9985 10.1133 21.2709 10.3141 21.4717C10.515 21.6726 10.7874 21.7856 11.0714 21.7859H14.2857V23.9287C14.286 24.2128 14.399 24.4851 14.5998 24.686C14.8007 24.8869 15.0731 24.9999 15.3571 25.0001H17.5C17.7841 24.9999 18.0564 24.8869 18.2573 24.686C18.4582 24.4851 18.5711 24.2128 18.5714 23.9287V21.7859C18.5711 21.5018 18.4582 21.2294 18.2573 21.0286C18.0564 20.8277 17.7841 20.7147 17.5 20.7144V20.7144ZM11.0714 20.7144V17.5001H14.2857V20.7144H11.0714ZM15.3571 23.9287V21.7859H17.5V23.9287H15.3571Z" fill="white"/>
<path d="M23.9286 25.0001H21.7858C21.5017 24.9998 21.2294 24.8868 21.0285 24.6859C20.8276 24.4851 20.7146 24.2127 20.7144 23.9286V21.7858C20.7146 21.5017 20.8276 21.2294 21.0285 21.0285C21.2294 20.8276 21.5017 20.7146 21.7858 20.7144H23.9286C24.2127 20.7146 24.4851 20.8276 24.6859 21.0285C24.8868 21.2294 24.9998 21.5017 25.0001 21.7858V23.9286C24.9998 24.2127 24.8868 24.4851 24.6859 24.6859C24.4851 24.8868 24.2127 24.9998 23.9286 25.0001ZM21.7858 21.7858V23.9286H23.9286V21.7858H21.7858Z" fill="white"/>
<path d="M23.9286 10H20.7143C20.4302 10.0003 20.1579 10.1133 19.957 10.3141C19.7561 10.515 19.6431 10.7874 19.6429 11.0714V14.2857H18.5714C18.2874 14.286 18.015 14.399 17.8141 14.5998C17.6133 14.8007 17.5003 15.0731 17.5 15.3571V16.4286C17.5003 16.7126 17.6133 16.985 17.8141 17.1859C18.015 17.3867 18.2874 17.4997 18.5714 17.5H19.6429C19.9269 17.4997 20.1993 17.3867 20.4002 17.1859C20.601 16.985 20.714 16.7126 20.7143 16.4286V15.3571H23.9286C24.2126 15.3569 24.485 15.2439 24.6859 15.043C24.8867 14.8421 24.9997 14.5698 25 14.2857V11.0714C24.9997 10.7874 24.8867 10.515 24.6859 10.3141C24.485 10.1133 24.2126 10.0003 23.9286 10ZM18.5714 16.4286V15.3571H19.6429V16.4286H18.5714ZM20.7143 14.2857V11.0714H23.9286V14.2857H20.7143Z" fill="white"/>
<path d="M13.2143 14.2857H11.0714C10.7874 14.2854 10.515 14.1725 10.3141 13.9716C10.1133 13.7707 10.0003 13.4984 10 13.2143V11.0714C10.0003 10.7874 10.1133 10.515 10.3141 10.3141C10.515 10.1133 10.7874 10.0003 11.0714 10H13.2143C13.4984 10.0003 13.7707 10.1133 13.9716 10.3141C14.1725 10.515 14.2854 10.7874 14.2857 11.0714V13.2143C14.2854 13.4984 14.1725 13.7707 13.9716 13.9716C13.7707 14.1725 13.4984 14.2854 13.2143 14.2857V14.2857ZM11.0714 11.0714V13.2143H13.2143V11.0714H11.0714Z" fill="white"/>
</g>
<defs>
<clipPath id="clip0">
<rect width="15" height="15" fill="white" transform="translate(10 10)"/>
</clipPath>
</defs>
</svg>
