<svg width="33" height="33" viewBox="0 0 33 33" fill="none" xmlns="http://www.w3.org/2000/svg">
<rect x="0.5" y="0.5" width="32" height="32" rx="9.5" fill="#F472AA"/>
<path d="M21.4212 21.4211C21.8958 21.4211 22.351 21.6096 22.6865 21.9452C23.0221 22.2808 23.2107 22.7359 23.2107 23.2105C23.2107 23.6851 23.0221 24.1403 22.6865 24.4759C22.351 24.8115 21.8958 25 21.4212 25C20.9466 25 20.4914 24.8115 20.1558 24.4759C19.8202 24.1403 19.6317 23.6851 19.6317 23.2105C19.6317 22.7359 19.8202 22.2808 20.1558 21.9452C20.4914 21.6096 20.9466 21.4211 21.4212 21.4211ZM21.4212 22.3158C21.1839 22.3158 20.9563 22.4101 20.7885 22.5779C20.6207 22.7456 20.5264 22.9732 20.5264 23.2105C20.5264 23.4478 20.6207 23.6754 20.7885 23.8432C20.9563 24.011 21.1839 24.1053 21.4212 24.1053C21.6585 24.1053 21.8861 24.011 22.0539 23.8432C22.2217 23.6754 22.3159 23.4478 22.3159 23.2105C22.3159 22.9732 22.2217 22.7456 22.0539 22.5779C21.8861 22.4101 21.6585 22.3158 21.4212 22.3158ZM13.3685 21.4211C13.8431 21.4211 14.2982 21.6096 14.6338 21.9452C14.9694 22.2808 15.158 22.7359 15.158 23.2105C15.158 23.6851 14.9694 24.1403 14.6338 24.4759C14.2982 24.8115 13.8431 25 13.3685 25C12.8939 25 12.4387 24.8115 12.1031 24.4759C11.7675 24.1403 11.579 23.6851 11.579 23.2105C11.579 22.7359 11.7675 22.2808 12.1031 21.9452C12.4387 21.6096 12.8939 21.4211 13.3685 21.4211ZM13.3685 22.3158C13.1312 22.3158 12.9036 22.4101 12.7358 22.5779C12.568 22.7456 12.4737 22.9732 12.4737 23.2105C12.4737 23.4478 12.568 23.6754 12.7358 23.8432C12.9036 24.011 13.1312 24.1053 13.3685 24.1053C13.6058 24.1053 13.8334 24.011 14.0012 23.8432C14.169 23.6754 14.2632 23.4478 14.2632 23.2105C14.2632 22.9732 14.169 22.7456 14.0012 22.5779C13.8334 22.4101 13.6058 22.3158 13.3685 22.3158ZM23.2107 10.6842H10.9285L13.2074 16.0526H20.5264C20.6656 16.0528 20.8028 16.0204 20.9271 15.9579C21.0514 15.8955 21.1594 15.8047 21.2422 15.6929L23.9265 12.114H23.9274C24.0266 11.981 24.0869 11.823 24.1015 11.6577C24.1161 11.4924 24.0845 11.3264 24.0101 11.178C23.9358 11.0297 23.8216 10.9049 23.6804 10.8177C23.5393 10.7305 23.3766 10.6843 23.2107 10.6842ZM20.5264 16.9474H13.2486L12.5632 18.3432L12.4737 18.7368C12.4737 18.9741 12.568 19.2017 12.7358 19.3695C12.9036 19.5373 13.1312 19.6316 13.3685 19.6316H23.2107V20.5263H13.3685C13.0569 20.5265 12.7507 20.4453 12.4801 20.2907C12.2095 20.1362 11.984 19.9137 11.8258 19.6453C11.6677 19.3768 11.5823 19.0717 11.5783 18.7602C11.5742 18.4486 11.6516 18.1414 11.8027 17.8689L12.4469 16.5501L9.19717 8.89474H8V8H9.78949L10.5491 9.78947H23.2107C23.5488 9.78951 23.88 9.88532 24.1658 10.0658C24.4517 10.2463 24.6806 10.5041 24.826 10.8093C24.9715 11.1146 25.0274 11.4548 24.9875 11.7905C24.9475 12.1262 24.8132 12.4438 24.6002 12.7063L21.9929 16.1833C21.8281 16.4193 21.6087 16.612 21.3533 16.7451C21.098 16.8781 20.8143 16.9475 20.5264 16.9474Z" fill="white"/>
<rect x="0.5" y="0.5" width="32" height="32" rx="9.5" stroke="#F472AA"/>
</svg>
