<svg width="60" height="53" viewBox="0 0 60 53" fill="none" xmlns="http://www.w3.org/2000/svg">
<path d="M22.8402 6.75355e-08C27.2095 -9.39315e-05 31.4872 1.25257 35.1657 3.60936C38.8441 5.96616 41.769 9.32816 43.5933 13.2965C45.4175 17.2648 46.0646 21.6729 45.4577 25.9977C44.8508 30.3226 43.0154 34.3826 40.1692 37.6962L60 57.5171L57.5159 60L37.6816 40.1756C34.8843 42.5665 31.5504 44.2463 27.9636 45.0719C24.3769 45.8974 20.6436 45.8443 17.0818 44.9171C13.52 43.9898 10.2353 42.2158 7.5072 39.7463C4.77914 37.2768 2.68865 34.1848 1.41378 30.7337C0.13891 27.2827 -0.282578 23.5748 0.185215 19.9258C0.653009 16.2769 1.99622 12.795 4.10046 9.77666C6.2047 6.75837 9.00762 4.2931 12.2705 2.59083C15.5334 0.888562 19.1595 -0.000282887 22.8402 6.75355e-08ZM22.8402 3.51185C17.7149 3.51185 12.7996 5.54684 9.17547 9.16914C5.55136 12.7914 3.51536 17.7043 3.51536 22.827C3.51536 27.9497 5.55136 32.8626 9.17547 36.4849C12.7996 40.1072 17.7149 42.1422 22.8402 42.1422C27.9654 42.1422 32.8808 40.1072 36.5049 36.4849C40.129 32.8626 42.165 27.9497 42.165 22.827C42.165 17.7043 40.129 12.7914 36.5049 9.16914C32.8808 5.54684 27.9654 3.51185 22.8402 3.51185ZM14.0562 21.0711H21.0834V14.0474H24.597V21.0711H31.6242V24.583H24.597V31.6067H21.0834V24.583H14.0562V21.0711Z" fill="white"/>
</svg>
