<svg width="35" height="35" viewBox="0 0 35 35" fill="none" xmlns="http://www.w3.org/2000/svg">
<rect x="0.5" y="0.5" width="34" height="34" rx="10.5" fill="#F4808D"/>
<path d="M10.7895 17.9479V25.1053H17.0526V17.9479H10.7895ZM17.9474 17.9479V25.1053H24.2105V17.9479H17.9474ZM25.1053 17.9479V26H9.89474V17.9479H9V12.5798H11.7155L11.6842 12.1325C11.684 11.4477 11.9082 10.7818 12.3225 10.2367C12.7369 9.6915 13.3185 9.29717 13.9783 9.11405C14.6381 8.93094 15.3398 8.96913 15.9759 9.22278C16.6119 9.47643 17.1473 9.93156 17.5 10.5185C17.8527 9.93156 18.3881 9.47643 19.0241 9.22278C19.6602 8.96913 20.3619 8.93094 21.0217 9.11405C21.6815 9.29717 22.2631 9.6915 22.6775 10.2367C23.0918 10.7818 23.316 11.4477 23.3158 12.1325L23.2845 12.5798H26V17.9479H25.1053ZM9.89474 13.4745V17.0532H17.0526V13.4745H9.89474ZM25.1053 17.0532V13.4745H17.9474V17.0532H25.1053ZM22.3763 12.5798L22.4211 12.1325C22.4211 11.5393 22.1854 10.9704 21.7659 10.5509C21.3464 10.1314 20.7775 9.89578 20.1842 9.89578C19.591 9.89578 19.022 10.1314 18.6025 10.5509C18.183 10.9704 17.9474 11.5393 17.9474 12.1325V12.5798H22.3763ZM17.0526 12.5798V12.1325C17.0526 11.5393 16.817 10.9704 16.3975 10.5509C15.978 10.1314 15.409 9.89578 14.8158 9.89578C14.2225 9.89578 13.6536 10.1314 13.2341 10.5509C12.8146 10.9704 12.5789 11.5393 12.5789 12.1325L12.6237 12.5798H17.0526Z" fill="white"/>
<rect x="0.5" y="0.5" width="34" height="34" rx="10.5" stroke="#F4808D"/>
</svg>
