<svg width="35" height="35" viewBox="0 0 35 35" fill="none" xmlns="http://www.w3.org/2000/svg">
<rect x="0.5" y="0.5" width="34" height="34" rx="10.5" fill="#82A3FB"/>
<path d="M9.80952 16.0733H12.2381C12.4528 16.0733 12.6587 16.1683 12.8105 16.3376C12.9623 16.5068 13.0476 16.7363 13.0476 16.9757V25.0976C13.0476 25.3369 12.9623 25.5664 12.8105 25.7357C12.6587 25.9049 12.4528 26 12.2381 26H9.80952C9.59482 26 9.38892 25.9049 9.2371 25.7357C9.08529 25.5664 9 25.3369 9 25.0976V16.9757C9 16.7363 9.08529 16.5068 9.2371 16.3376C9.38892 16.1683 9.59482 16.0733 9.80952 16.0733ZM9.80952 16.9757V25.0976H12.2381V16.9757H9.80952ZM22.532 24.2177L24.9614 19.7055C25.1071 19.4348 25.1905 19.119 25.1905 18.7806V17.8781C25.1905 17.3994 25.0199 16.9404 24.7163 16.6019C24.4126 16.2634 24.0008 16.0733 23.5714 16.0733H19.03L20.2095 11.164L20.2135 11.1478C20.2504 10.9948 20.2505 10.8337 20.2138 10.6807C20.1772 10.5277 20.105 10.3881 20.0047 10.276L15.1402 15.6987C14.9897 15.8663 14.8704 16.0654 14.7891 16.2845C14.7078 16.5037 14.6662 16.7386 14.6667 16.9757V23.2927C14.6667 23.7714 14.8372 24.2305 15.1409 24.5689C15.4445 24.9074 15.8563 25.0976 16.2857 25.0976H21.1429C21.7338 25.0976 22.2503 24.7456 22.532 24.2177ZM26 18.7806C26 19.3166 25.8608 19.8156 25.6195 20.2353L23.267 24.6057C23.0568 25.0283 22.749 25.3805 22.3754 25.6256C22.0019 25.8708 21.5763 26.0001 21.1429 26H16.2857C15.6416 26 15.0239 25.7148 14.5685 25.2071C14.113 24.6993 13.8571 24.0107 13.8571 23.2927V16.9757C13.8571 16.2285 14.1283 15.5526 14.5671 15.0625L20.0047 9L20.577 9.63802C20.7818 9.86633 20.9279 10.1517 21.0001 10.4644C21.0723 10.7771 21.0679 11.1056 20.9874 11.4158L20.0848 15.1708H23.5714C24.2155 15.1708 24.8332 15.4561 25.2887 15.9638C25.7441 16.4715 26 17.1601 26 17.8781V18.7806Z" fill="#FCFCFC"/>
<rect x="0.5" y="0.5" width="34" height="34" rx="10.5" stroke="#82A3FB"/>
</svg>
