<?xml version="1.0" standalone="no"?>
<!DOCTYPE svg PUBLIC "-//W3C//DTD SVG 20010904//EN"
 "http://www.w3.org/TR/2001/REC-SVG-20010904/DTD/svg10.dtd">
<svg version="1.0" xmlns="http://www.w3.org/2000/svg"
 width="500.000000pt" height="500.000000pt" viewBox="0 0 500.000000 500.000000"
 preserveAspectRatio="xMidYMid meet">

<g transform="translate(0.000000,500.000000) scale(0.100000,-0.100000)"
fill="#000000" stroke="none">
<path d="M0 2500 l0 -2500 2500 0 2500 0 0 2500 0 2500 -2500 0 -2500 0 0
-2500z m2495 1978 c-60 -31 -75 -47 -105 -113 -42 -93 -114 -145 -202 -145
l-26 0 28 28 c15 16 34 49 40 73 21 76 32 99 61 127 40 38 82 50 169 51 l75 0
-40 -21z m300 1 l40 -12 -40 -12 c-61 -18 -84 -35 -120 -91 -50 -77 -92 -105
-170 -113 -36 -4 -71 -4 -78 1 -9 6 -8 8 4 8 23 0 65 49 89 105 12 28 29 59
38 69 44 49 150 69 237 45z m-580 -12 c-52 -31 -93 -87 -105 -141 -15 -72 -71
-138 -137 -160 -64 -22 -78 -21 -53 4 28 28 40 63 40 112 0 57 34 123 76 149
47 29 110 48 159 48 35 0 38 -2 20 -12z m870 -51 l40 -18 -60 -13 c-52 -11
-65 -19 -105 -62 -67 -75 -102 -93 -182 -93 -95 0 -107 7 -56 34 24 11 53 37
65 56 40 63 66 92 97 106 41 19 149 13 201 -10z m-1178 -27 c-38 -29 -63 -83
-70 -153 -9 -91 -57 -149 -159 -193 l-27 -12 25 36 c20 31 24 48 24 116 0 92
19 138 75 176 41 28 101 50 135 50 l25 0 -28 -20z m1434 -71 l64 -33 -35 -3
c-77 -5 -101 -14 -150 -56 -77 -66 -135 -79 -231 -49 l-54 16 40 10 c27 7 56
27 95 67 70 73 83 79 151 80 44 0 70 -7 120 -32z m-1709 -41 c-35 -37 -50 -87
-49 -162 1 -103 -36 -164 -131 -214 -23 -12 -23 -12 -7 13 18 28 21 63 10 153
-9 74 -3 102 31 143 30 36 119 90 148 90 19 0 19 -1 -2 -23z m1934 -82 c27
-14 60 -35 72 -48 l22 -23 -66 4 c-59 4 -69 2 -115 -27 -72 -45 -129 -55 -193
-37 -28 8 -60 21 -70 29 -18 13 -16 14 23 21 29 4 55 18 86 47 79 73 141 82
241 34z m-2202 -90 c-22 -43 -24 -58 -18 -100 14 -101 9 -149 -19 -198 -24
-41 -75 -92 -83 -84 -2 2 1 19 7 38 8 27 7 44 -6 79 -40 109 -37 156 12 219
27 33 122 106 129 98 2 -2 -8 -25 -22 -52z m2403 -64 c38 -18 129 -99 120
-108 -2 -2 -17 1 -33 7 -44 17 -104 14 -154 -9 -84 -38 -203 -19 -258 42 -16
19 -16 19 6 13 33 -11 73 1 133 39 63 41 119 46 186 16z m-2632 -121 c-20 -56
-19 -79 5 -140 34 -87 23 -162 -35 -226 l-36 -39 7 33 c5 26 -2 49 -30 107
-45 92 -46 132 -6 201 25 45 98 119 107 110 2 -1 -4 -22 -12 -46z m2796 -60
c46 -13 108 -66 138 -120 l23 -42 -23 15 c-56 35 -97 40 -166 22 -98 -27 -174
-5 -241 67 l-22 25 52 -4 c41 -3 64 2 103 21 56 27 83 31 136 16z m-2992 -142
c-15 -55 -10 -93 21 -151 50 -95 49 -159 -4 -247 l-21 -35 -7 48 c-4 34 -18
63 -46 100 -50 65 -60 109 -37 176 13 39 85 141 100 141 2 0 -1 -15 -6 -32z
m924 25 c3 -6 -101 -813 -187 -1450 l-6 -43 335 0 c309 0 335 -1 335 -17 0
-22 -29 -261 -36 -290 l-4 -23 -526 0 -527 0 6 38 c3 20 56 422 117 892 61
470 113 865 116 878 4 22 6 22 189 22 101 0 186 -3 188 -7z m1317 -2 c0 -5
-43 -335 -95 -733 -52 -398 -95 -731 -95 -740 0 -17 23 -18 335 -18 184 0 335
-1 335 -2 0 -2 -9 -70 -20 -152 -11 -81 -20 -154 -20 -162 0 -12 -84 -14 -528
-14 l-528 0 118 903 c65 496 120 908 123 915 5 15 375 18 375 3z m913 -102
c45 -12 108 -71 137 -128 29 -58 25 -66 -17 -34 -33 26 -44 28 -130 30 -120 2
-151 13 -208 74 -47 51 -54 70 -17 50 27 -15 89 -13 132 4 44 17 56 17 103 4z
m-3320 -178 c-7 -49 10 -99 49 -148 40 -50 49 -77 49 -140 0 -55 -38 -163 -40
-113 -1 32 -28 74 -84 132 -55 57 -66 102 -43 180 13 45 59 128 70 128 2 0 2
-17 -1 -39z m3249 -51 c29 -18 43 -19 114 -14 62 5 87 3 110 -9 59 -31 105
-97 123 -177 l9 -42 -31 32 c-41 42 -84 60 -144 60 -86 1 -154 45 -202 131
-26 45 -24 46 21 19z m-3352 -261 c7 -13 34 -47 61 -75 29 -32 52 -67 59 -93
11 -41 6 -114 -11 -156 l-8 -20 0 20 c-2 35 -37 80 -87 113 -27 17 -58 46 -69
64 -28 47 -26 136 6 208 l24 55 6 -46 c4 -26 13 -57 19 -70z m3572 -9 c98 0
149 -33 186 -120 11 -25 23 -67 27 -95 l6 -50 -25 36 c-33 47 -79 75 -138 84
-71 11 -132 56 -163 120 -33 71 -32 79 11 50 29 -20 50 -25 96 -25z m-3663
-197 c8 -30 24 -52 53 -75 102 -81 128 -125 128 -217 0 -34 -3 -61 -7 -61 -5
0 -15 15 -24 32 -11 23 -35 42 -85 68 -57 30 -73 44 -91 80 -26 50 -30 128
-11 192 13 44 20 41 37 -19z m3708 -66 c15 -3 45 -8 65 -12 48 -7 96 -48 119
-100 24 -53 34 -138 20 -161 -8 -15 -10 -16 -11 -3 0 32 -69 97 -121 114 -92
31 -145 98 -163 203 l-6 32 35 -34 c18 -19 46 -37 62 -39z m-3712 -257 c14
-14 49 -36 77 -50 71 -35 108 -90 115 -169 l6 -61 -39 38 c-26 26 -52 41 -79
46 -110 21 -170 122 -150 253 l7 48 18 -40 c10 -22 30 -51 45 -65z m3714 8
c17 -15 53 -34 80 -43 100 -33 149 -133 125 -254 -8 -40 -17 -39 -32 3 -15 41
-56 84 -97 102 -73 30 -116 99 -122 194 -2 45 -1 59 6 44 5 -11 23 -32 40 -46z
m-3722 -260 c15 -15 48 -35 74 -43 81 -27 149 -119 149 -204 0 -23 0 -23 -34
7 -22 19 -54 34 -88 41 -29 7 -67 20 -84 30 -55 34 -94 147 -79 228 l7 38 14
-35 c9 -19 27 -47 41 -62z m3693 28 c0 -25 35 -58 96 -91 84 -45 106 -86 101
-185 -2 -44 -10 -88 -20 -105 -16 -30 -16 -30 -17 -5 -1 46 -37 107 -83 141
-71 54 -91 91 -95 182 -3 52 -1 77 7 77 6 0 11 -6 11 -14z m-3643 -312 c18
-12 53 -25 78 -28 79 -12 148 -81 175 -175 l9 -31 -35 26 c-27 21 -51 28 -110
34 -83 8 -114 24 -151 80 -28 40 -43 92 -43 144 l0 39 23 -34 c12 -18 37 -43
54 -55z m3683 -50 c58 -44 89 -96 90 -150 0 -45 -27 -129 -51 -156 -14 -16
-19 -18 -15 -6 11 36 -21 119 -62 161 -69 70 -85 135 -60 234 l11 46 16 -44
c12 -31 31 -55 71 -85z m-144 -192 c3 -13 24 -45 48 -70 57 -62 66 -81 66
-144 0 -57 -32 -140 -66 -170 -18 -16 -19 -15 -16 38 4 49 0 61 -42 131 -37
63 -46 86 -46 125 0 56 42 179 48 138 1 -14 5 -36 8 -48z m-3475 -12 c21 -11
58 -20 82 -20 71 0 145 -44 185 -110 17 -30 32 -58 32 -62 0 -4 -15 1 -32 12
-26 16 -51 20 -118 20 -96 0 -129 14 -174 72 -27 37 -56 108 -56 141 0 18 2
17 21 -7 11 -15 38 -35 60 -46z m3179 -145 l0 -115 -1315 0 -1315 0 0 115 0
115 1315 0 1315 0 0 -115z m176 -41 c-10 -26 11 -88 44 -129 41 -51 54 -104
40 -156 -14 -49 -47 -104 -85 -139 l-27 -25 8 40 c13 61 8 98 -20 153 -37 74
-36 149 4 220 29 50 49 70 36 36z m-3157 -87 c96 3 151 -18 206 -79 53 -59 57
-75 14 -52 -22 11 -44 14 -73 10 -132 -19 -160 -19 -196 6 -38 25 -91 98 -108
146 l-10 30 51 -31 c45 -28 58 -32 116 -30z m3005 -157 c-5 -32 -1 -52 25
-104 53 -110 35 -188 -63 -273 -47 -42 -61 -42 -40 -1 22 42 22 99 1 171 -21
76 -11 130 37 196 21 28 40 51 42 51 2 0 1 -18 -2 -40z m-2925 -79 c26 -5 57
-5 84 1 98 23 170 3 235 -65 l33 -34 -50 5 c-38 3 -64 -1 -100 -17 -88 -37
-160 -21 -227 51 -61 66 -84 113 -40 84 14 -8 43 -20 65 -25z m2745 -116 c-15
-36 -14 -42 7 -107 27 -85 22 -136 -18 -187 -28 -34 -116 -101 -134 -101 -5 0
3 21 17 48 24 44 25 53 19 137 -8 110 2 140 70 208 27 26 50 45 52 44 2 -2 -4
-21 -13 -42z m-2279 -84 c22 -11 53 -30 68 -43 l28 -23 -53 0 c-43 0 -63 -6
-104 -32 -87 -56 -176 -39 -261 48 -24 23 -43 46 -43 50 0 4 17 1 38 -7 51
-18 99 -16 152 6 58 24 124 25 175 1z m2079 -62 c-17 -19 -19 -35 -16 -133 2
-110 2 -113 -27 -153 -19 -27 -51 -51 -92 -72 -82 -41 -99 -40 -61 3 37 42 56
98 48 138 -14 71 33 159 112 209 55 35 61 36 36 8z m-1814 -105 c30 -15 51
-28 45 -29 -5 -2 -27 -6 -48 -10 -22 -3 -53 -20 -75 -39 -52 -47 -74 -56 -129
-56 -58 0 -136 35 -177 78 l-29 31 38 -10 c48 -14 109 -4 145 21 68 48 147 53
230 14z m1582 -37 c-29 -31 -43 -82 -36 -129 15 -88 -50 -171 -159 -203 -81
-24 -94 -20 -52 16 45 40 61 71 70 134 14 96 63 157 151 189 21 8 41 15 43 15
3 1 -5 -10 -17 -22z m-1307 -77 c40 -18 40 -18 10 -19 -38 -1 -87 -31 -117
-71 -54 -75 -153 -88 -256 -36 -70 36 -73 46 -12 46 56 0 76 8 131 52 72 58
157 67 244 28z m1053 -27 c-32 -34 -48 -73 -48 -119 0 -95 -81 -164 -203 -171
l-72 -5 37 24 c49 31 74 64 88 118 24 91 68 135 165 166 58 18 62 17 33 -13z
m-775 -42 c8 -8 5 -11 -10 -11 -29 0 -77 -42 -105 -91 -12 -22 -38 -50 -58
-62 -49 -31 -146 -29 -215 3 l-50 23 45 7 c58 8 104 33 132 70 12 17 45 42 72
56 43 22 60 25 114 21 35 -3 69 -10 75 -16z m519 -11 c-31 -19 -71 -86 -72
-118 0 -8 -7 -29 -16 -48 -31 -66 -146 -108 -241 -89 l-38 8 35 14 c50 21 89
61 112 113 39 90 112 135 223 139 l30 1 -33 -20z m-247 -10 c-3 -5 -12 -10
-19 -10 -20 0 -63 -51 -93 -110 -46 -90 -125 -123 -238 -100 -56 12 -83 30
-45 30 32 0 97 37 117 66 72 103 122 133 221 134 40 0 61 -4 57 -10z"/>
</g>
</svg>
