<?xml version="1.0" encoding="UTF-8" standalone="no" ?>
<!DOCTYPE svg PUBLIC "-//W3C//DTD SVG 1.1//EN" "http://www.w3.org/Graphics/SVG/1.1/DTD/svg11.dtd">
<svg xmlns="http://www.w3.org/2000/svg" xmlns:xlink="http://www.w3.org/1999/xlink" version="1.1" width="500" height="500" viewBox="0 0 500 500" xml:space="preserve">
<desc>Created with Fabric.js 3.6.3</desc>
<defs>
</defs>
<g transform="matrix(19.802121060957326 0 0 19.802121060957326 261 177.6850039469322)"  >
<path style="stroke: none; stroke-width: 0; stroke-dasharray: none; stroke-linecap: butt; stroke-dashoffset: 0; stroke-linejoin: miter; stroke-miterlimit: 4; fill: rgb(55,65,64); fill-rule: evenodd; opacity: 1;"  transform=" translate(-9.308611397624436, -8.609533541037482)" d="M 18.6172 7.71354 c -2.62371 1.66491 -3.01252 0.119901 -3.82132 3.33302 c 0.147701 -0.250001 0.335902 -0.124601 0.557103 -0.314202 c -0.0840005 0.146201 -0.257801 0.398502 -0.0684004 1.23241 c 0 -0.477503 0.212401 -0.827104 0.387502 -0.883805 c 0.456602 0.233301 0.124601 1.25271 -0.253001 1.35971 c -0.789404 0.223701 -2.04861 -1.53521 -1.17701 -2.52071 c -0.396902 -0.0736004 -1.65901 0.104901 -2.07271 -0.489403 c -2.93932 -2.26381 -6.90034 -1.10811 -8.98325 -3.83872 c 1.68691 3.94622 4.90113 3.10032 7.13544 4.40972 c -1.48131 0.362202 -2.82472 0.0317002 -3.28422 -0.697104 c 0.546403 1.63921 2.69641 1.98061 4.16622 2.19221 c -0.644603 0.314802 -1.92161 0.123601 -2.53671 -0.134301 c 1.29901 1.37691 2.49551 1.56651 4.36772 1.29351 c -0.520203 0.549103 -1.27781 0.651604 -1.99901 0.621503 c 0.921105 0.336002 1.33461 0.604103 2.33501 0.504003 c -1.62931 2.72291 -5.04883 2.54121 -6.87074 0.772804 c 0.0575003 0.216501 0.951205 1.28481 2.15021 1.61271 c -4.14512 -0.469303 -5.61083 -2.43801 -5.61083 -6.45083 c -0.421702 1.47571 -0.632603 2.00091 -0.319202 3.51102 c -2.37721 -2.37721 -1.20001 -7.26764 0.730504 -8.63475 c -1.00681 0.207301 -1.35791 0.723404 -1.99911 1.44471 c 0.543703 -2.71811 3.49732 -5.06493 6.19883 -4.36772 c -0.662104 -0.585703 -1.20301 -0.520803 -2.06621 -0.520803 c 1.15941 -0.579703 4.63092 -1.56131 5.48893 -0.0225001 c -0.111801 -0.410602 -0.565203 -0.646603 -0.475203 -0.628303 c 0.972505 0.197901 1.94501 0.556703 2.93212 1.02041 c -6.08233 -4.02542 -14.1047 0.442802 -13.4973 7.67424 c 0.832504 9.90965 16.0245 10.8829 16.6345 1.58091 c 0.817804 -1.20731 0.782404 -2.19341 1.95011 -3.05972 z" stroke-linecap="round" />
</g>
<g transform="matrix(1,0,0,1,250,439.2087348630456)" style=""  ><path fill="#374140" opacity="1" d="M-92.05 43.32L-92.05 41.25L-83.77 39.18L-83.77-49.07L-92.05-51.14L-92.05-53.21L-52.75-53.21L-52.75-51.14L-61.02-49.07L-61.02 39.87L-31.37 39.87Q-31.37 31.18-26.96 23.74L-26.96 23.74Q-25.03 20.57-22.41 18.50L-22.41 18.50L-18.27 18.50L-18.27 43.32L-92.05 43.32Z"/><path fill="#374140" opacity="1" d="M21.72 43.32L21.72 41.25L29.99 39.18L29.99-49.07L21.72-51.14L21.72-53.21L61.02-53.21L61.02-51.14L52.75-49.07L52.75 39.87L82.40 39.87Q82.40 31.18 86.81 23.74L86.81 23.74Q88.74 20.57 91.36 18.50L91.36 18.50L95.50 18.50L95.50 43.32L21.72 43.32Z"/></g>
</svg>