<svg width="43" height="50" viewBox="0 0 43 50" fill="none" xmlns="http://www.w3.org/2000/svg">
<path d="M7.5 7.5H13.75C13.75 5.51088 14.5402 3.60322 15.9467 2.1967C17.3532 0.790177 19.2609 0 21.25 0C23.2391 0 25.1468 0.790177 26.5533 2.1967C27.9598 3.60322 28.75 5.51088 28.75 7.5H35C36.9891 7.5 38.8968 8.29018 40.3033 9.6967C41.7098 11.1032 42.5 13.0109 42.5 15V42.5C42.5 44.4891 41.7098 46.3968 40.3033 47.8033C38.8968 49.2098 36.9891 50 35 50H7.5C5.51088 50 3.60322 49.2098 2.1967 47.8033C0.790177 46.3968 0 44.4891 0 42.5V15C0 13.0109 0.790177 11.1032 2.1967 9.6967C3.60322 8.29018 5.51088 7.5 7.5 7.5ZM7.5 10C6.17392 10 4.90215 10.5268 3.96447 11.4645C3.02678 12.4021 2.5 13.6739 2.5 15V42.5C2.5 43.8261 3.02678 45.0979 3.96447 46.0355C4.90215 46.9732 6.17392 47.5 7.5 47.5H35C36.3261 47.5 37.5979 46.9732 38.5355 46.0355C39.4732 45.0979 40 43.8261 40 42.5V15C40 13.6739 39.4732 12.4021 38.5355 11.4645C37.5979 10.5268 36.3261 10 35 10H32.5V17.5H10V10H7.5ZM12.5 15H30V10H12.5V15ZM21.25 2.5C19.9239 2.5 18.6521 3.02678 17.7145 3.96447C16.7768 4.90215 16.25 6.17392 16.25 7.5H26.25C26.25 6.17392 25.7232 4.90215 24.7855 3.96447C23.8479 3.02678 22.5761 2.5 21.25 2.5ZM35.375 24L17.5 41.875L9.5 33.875L11.2675 32.1075L17.5 38.34L33.605 22.2325L35.3725 24H35.375Z" fill="white"/>
</svg>
