<svg width="48" height="48" viewBox="0 0 48 48" fill="none" xmlns="http://www.w3.org/2000/svg">
<path d="M2.5 44.465L11.465 35.5H40C41.3261 35.5 42.5979 34.9732 43.5355 34.0355C44.4732 33.0979 45 31.8261 45 30.5V8C45 6.67392 44.4732 5.40215 43.5355 4.46447C42.5979 3.52678 41.3261 3 40 3H7.5C6.17392 3 4.90215 3.52678 3.96447 4.46447C3.02678 5.40215 2.5 6.67392 2.5 8V44.465ZM2.5 48H0V8C0 6.01088 0.790177 4.10322 2.1967 2.6967C3.60322 1.29018 5.51088 0.5 7.5 0.5H40C41.9891 0.5 43.8968 1.29018 45.3033 2.6967C46.7098 4.10322 47.5 6.01088 47.5 8V30.5C47.5 32.4891 46.7098 34.3968 45.3033 35.8033C43.8968 37.2098 41.9891 38 40 38H12.5L2.5 48ZM37.5 10.5V28H35L30 23V28H10V10.5H30V15.5L35 10.5H37.5ZM30 19.035V19.465L35 24.465V14.035L30 19.035ZM12.5 13V25.5H27.5V13H12.5Z" fill="#FEFEFE"/>
</svg>
