<svg width="64" height="64" viewBox="0 0 64 64" fill="none" xmlns="http://www.w3.org/2000/svg">
<defs>
<radialGradient id="paint0_radial" cx="0" cy="0" r="1" gradientUnits="userSpaceOnUse" gradientTransform="translate(32 29.2182) scale(23.766 28.2839)">
<stop offset="0.794" stop-color="#BFA055" stop-opacity="0"/>
<stop offset="1" stop-color="#BFA055"/>
</radialGradient>
<linearGradient id="paint1_linear" x1="32" y1="47.803" x2="32" y2="61.199" gradientUnits="userSpaceOnUse">
<stop offset="0.003" stop-color="#E3F2FD"/>
<stop offset="0.225" stop-color="#D6ECFC"/>
<stop offset="0.635" stop-color="#B4DBFB"/>
<stop offset="1" stop-color="#90CAF9"/>
</linearGradient>
<linearGradient id="paint2_linear" x1="32" y1="56.058" x2="32" y2="45.7285" gradientUnits="userSpaceOnUse">
<stop offset="0.5" stop-color="#F5F5F5"/>
<stop offset="1" stop-color="#DADADA"/>
</linearGradient>
<radialGradient id="paint3_radial" cx="0" cy="0" r="1" gradientUnits="userSpaceOnUse" gradientTransform="translate(32.1665 31.2329) scale(24.894 30.2089)">
<stop offset="0.794" stop-color="#BFA055" stop-opacity="0"/>
<stop offset="1" stop-color="#BFA055"/>
</radialGradient>
</defs>
<path d="M32.285 1.435C11.78 1.435 11.945 20.395 11.945 20.695C11.945 32.975 12.885 50.32 17.8 57.145C19.75 59.85 23.515 60 23.515 60L32 59.99L40.485 60C40.485 60 44.255 59.85 46.2 57.145C51.115 50.32 52.055 32.975 52.055 20.695C52.05 20.395 52.79 1.435 32.285 1.435Z" fill="#AB872F"/>
<path d="M32.285 1.435C11.78 1.435 11.945 20.395 11.945 20.695C11.945 32.975 12.885 50.32 17.8 57.145C19.75 59.85 23.515 60 23.515 60L32 59.99L40.485 60C40.485 60 44.255 59.85 46.2 57.145C51.115 50.32 52.055 32.975 52.055 20.695C52.05 20.395 52.79 1.435 32.285 1.435Z" fill="url(#paint0_radial)"/>
<path d="M32.07 48H32C19.175 48.015 6 51.55 6 60.495V62H58V60.495C58 52.06 44.95 48 32.07 48Z" fill="url(#paint1_linear)"/>
<path d="M37.825 45.4H26.175L22.69 49.165L26.79 55.52C27.24 56.215 28.235 56.27 28.755 55.625L31.995 51.62L35.235 55.625C35.755 56.27 36.755 56.215 37.2 55.52L41.3 49.165L37.825 45.4Z" fill="url(#paint2_linear)"/>
<path d="M32 56.5C32.4667 56.5 32.845 56.1217 32.845 55.655C32.845 55.1883 32.4667 54.81 32 54.81C31.5333 54.81 31.155 55.1883 31.155 55.655C31.155 56.1217 31.5333 56.5 32 56.5Z" fill="#64B5F6"/>
<path d="M32 60.5C32.4667 60.5 32.845 60.1217 32.845 59.655C32.845 59.1883 32.4667 58.81 32 58.81C31.5333 58.81 31.155 59.1883 31.155 59.655C31.155 60.1217 31.5333 60.5 32 60.5Z" fill="#64B5F6"/>
<path d="M32 42.165H27.46V47.155C27.46 49.41 29.31 51.24 31.59 51.24H32.415C34.695 51.24 36.545 49.41 36.545 47.155V42.165H32Z" fill="#C48E6A"/>
<path d="M32 8.01999C23.4 8.01999 15.435 14.415 15.435 27.975C15.435 38.865 22.18 45.31 28.05 47.39C29.45 47.885 30.8 48.135 32 48.135C33.19 48.135 34.535 47.89 35.925 47.4C41.805 45.33 48.565 38.885 48.565 27.98C48.565 14.415 40.6 8.01999 32 8.01999Z" fill="#E0BB95"/>
<path d="M33.905 34.03C33.85 34.01 33.8 33.995 33.745 33.99H30.25C30.195 33.995 30.145 34.01 30.09 34.03C29.775 34.16 29.6 34.485 29.75 34.835C29.9 35.185 30.595 36.165 31.995 36.165C33.395 36.165 34.095 35.185 34.24 34.835C34.395 34.485 34.225 34.155 33.905 34.03Z" fill="#C48E6A"/>
<path d="M23.875 31.955C25.2198 31.955 26.31 30.8268 26.31 29.435C26.31 28.0432 25.2198 26.915 23.875 26.915C22.5302 26.915 21.44 28.0432 21.44 29.435C21.44 30.8268 22.5302 31.955 23.875 31.955Z" fill="#5D4037"/>
<path d="M40.125 31.955C41.4698 31.955 42.56 30.8268 42.56 29.435C42.56 28.0432 41.4698 26.915 40.125 26.915C38.7802 26.915 37.69 28.0432 37.69 29.435C37.69 30.8268 38.7802 31.955 40.125 31.955Z" fill="#5D4037"/>
<path d="M27.495 24.91C27.03 24.295 25.96 23.405 23.88 23.405C21.8 23.405 20.725 24.3 20.265 24.91C20.06 25.18 20.11 25.495 20.255 25.685C20.385 25.86 20.775 26.025 21.205 25.88C21.635 25.735 22.475 25.3 23.88 25.29C25.285 25.3 26.125 25.735 26.555 25.88C26.985 26.025 27.375 25.865 27.505 25.685C27.645 25.495 27.695 25.18 27.495 24.91Z" fill="#AB872F"/>
<path d="M43.74 24.91C43.275 24.295 42.205 23.405 40.125 23.405C38.045 23.405 36.97 24.3 36.51 24.91C36.305 25.18 36.355 25.495 36.5 25.685C36.63 25.86 37.02 26.025 37.45 25.88C37.88 25.735 38.72 25.3 40.125 25.29C41.53 25.3 42.37 25.735 42.8 25.88C43.23 26.025 43.62 25.865 43.75 25.685C43.895 25.495 43.945 25.18 43.74 24.91Z" fill="#AB872F"/>
<path d="M36.16 38.07C34.585 39.005 29.425 39.005 27.855 38.07C26.95 37.535 26.03 38.355 26.405 39.175C26.775 39.98 29.59 41.855 32.02 41.855C34.45 41.855 37.23 39.98 37.6 39.175C37.975 38.355 37.06 37.53 36.16 38.07Z" fill="#6D4C41"/>
<path d="M32.285 1.435C11.78 1.435 11.945 20.395 11.945 20.695C11.945 24.575 12.04 28.96 12.32 33.355L15.68 33.345C15.65 31.885 16.675 22.86 19.72 22.175C30.9 19.66 37.225 13.73 37.225 13.73C38.87 17.32 44.015 20.825 45.86 22.16C47.375 23.255 47.995 31.435 47.965 33.35H51.665C51.665 33.325 51.675 33.3 51.675 33.27C51.955 28.895 52.045 24.54 52.045 20.685C52.05 20.395 52.79 1.435 32.285 1.435Z" fill="#AB872F"/>
<path d="M32.285 1.435C11.78 1.435 11.945 20.395 11.945 20.695C11.945 24.575 12.04 28.96 12.32 33.355L15.68 33.345C15.65 31.885 16.675 22.86 19.72 22.175C30.9 19.66 37.225 13.73 37.225 13.73C38.87 17.32 44.015 20.825 45.86 22.16C47.375 23.255 47.995 31.435 47.965 33.35H51.665C51.665 33.325 51.675 33.3 51.675 33.27C51.955 28.895 52.045 24.54 52.045 20.685C52.05 20.395 52.79 1.435 32.285 1.435Z" fill="url(#paint3_radial)"/>
</svg>
